<svg width="512" height="512" viewBox="0 0 512 512" fill="none" xmlns="http://www.w3.org/2000/svg" role="img" aria-labelledby="title desc">
  <title id="title">Flash CNH</title>
  <desc id="desc">Logo com painel de carro e volante em branco sobre fundo verde petróleo e detalhes amarelos.</desc>
  <rect width="512" height="512" rx="112" fill="#0B6B70"/>
  <path d="M96 214H84M428 214h-12" stroke="#FFFFFF" stroke-width="17" stroke-linecap="round"/>
  <path d="M115 178c0-31 24-56 55-56h172c31 0 55 25 55 56v156c0 31-24 56-55 56H170c-31 0-55-25-55-56V178Z" fill="#F59E0B"/>
  <path d="M115 214v-36c0-31 24-56 55-56h172c31 0 55 25 55 56v36M115 298v36c0 31 24 56 55 56h172c31 0 55-25 55-56v-36" stroke="#FFFFFF" stroke-width="17" stroke-linecap="round" stroke-linejoin="round"/>
  <path d="M66 214h119M327 214h119M66 298h96M350 298h96" stroke="#FFFFFF" stroke-width="17" stroke-linecap="round"/>
  <circle cx="256" cy="256" r="96" fill="#0B6B70" stroke="#FFFFFF" stroke-width="17"/>
  <path d="M177 255c18-48 45-73 79-73s61 25 79 73" stroke="#FFFFFF" stroke-width="17" stroke-linecap="round" stroke-linejoin="round"/>
  <path d="M177 255c26 8 52-12 79-12s53 20 79 12" stroke="#FFFFFF" stroke-width="17" stroke-linecap="round" stroke-linejoin="round"/>
  <path d="M211 287c-21 0-33 7-33 21 12 27 31 46 57 57 9 4 19-3 19-13v-36c0-16-12-29-28-29h-15Z" fill="#0B6B70" stroke="#FFFFFF" stroke-width="17" stroke-linejoin="round"/>
  <path d="M301 287c21 0 33 7 33 21-12 27-31 46-57 57-9 4-19-3-19-13v-36c0-16 12-29 28-29h15Z" fill="#0B6B70" stroke="#FFFFFF" stroke-width="17" stroke-linejoin="round"/>
  <path d="M256 328v48M138 255h18M356 255h18" stroke="#FFFFFF" stroke-width="17" stroke-linecap="round"/>
</svg>
